<svg xmlns="http://www.w3.org/2000/svg" viewBox="0 0 529.3 211.81"><defs><style>.cls-1{isolation:isolate;}.cls-2{fill:#09d8de;}.cls-3{font-size:32.66px;fill:#f3f3f3;}.cls-16,.cls-18,.cls-3{font-family:Otterco-ExtraBold, Otterco ExtraBold;}.cls-15,.cls-16,.cls-18,.cls-19,.cls-20,.cls-21,.cls-22,.cls-3,.cls-8{font-weight:800;}.cls-4{letter-spacing:0em;}.cls-5{letter-spacing:-0.01em;}.cls-6{letter-spacing:0em;}.cls-7{opacity:0.75;mix-blend-mode:multiply;}.cls-15,.cls-8{font-size:53.81px;}.cls-16,.cls-19,.cls-21,.cls-8{fill:#7c7c7c;}.cls-15,.cls-19,.cls-20,.cls-21,.cls-22,.cls-8{font-family:Otterco-ExtraBoldItalic, Otterco ExtraBoldItalic;font-style:italic;}.cls-9{letter-spacing:0.01em;}.cls-10{letter-spacing:-0.01em;}.cls-11{letter-spacing:-0.01em;}.cls-12{letter-spacing:0em;}.cls-13{letter-spacing:0em;}.cls-14{letter-spacing:0em;}.cls-15,.cls-18,.cls-20,.cls-22{fill:#fffff6;}.cls-16,.cls-18{font-size:62.03px;}.cls-17{letter-spacing:0em;}.cls-19,.cls-20{font-size:108.35px;}.cls-21,.cls-22{font-size:119.95px;}</style></defs><title>inzquierda_inicio</title><g class="cls-1"><g id="Capa_2" data-name="Capa 2"><g id="Capa_1-2" data-name="Capa 1"><path class="cls-2" d="M513,57.76,179.49,58.85a29.43,29.43,0,0,1-29.42-29.43h0A29.42,29.42,0,0,1,179.49,0H529.3Z"/><text class="cls-3" transform="translate(200.53 39.83)"><tspan class="cls-4">R</tspan><tspan x="17.7" y="0">e</tspan><tspan class="cls-5" x="34.06" y="0">g</tspan><tspan x="52.12" y="0">ist</tspan><tspan class="cls-6" x="83.51" y="0">r</tspan><tspan x="94.02" y="0">a tu bici aquí</tspan></text><g class="cls-7"><text class="cls-8" transform="translate(35.63 117.73)"><tspan class="cls-9">M</tspan><tspan class="cls-10" x="43.58" y="0">a</tspan><tspan class="cls-11" x="69.09" y="0">y</tspan><tspan x="93.89" y="0">or </tspan><tspan class="cls-9" x="152.43" y="0">S</tspan><tspan class="cls-12" x="179.28" y="0">egu</tspan><tspan class="cls-13" x="265.96" y="0">r</tspan><tspan class="cls-14" x="283.77" y="0">idad</tspan></text></g><text class="cls-15" transform="translate(33.84 115.94)"><tspan class="cls-9">M</tspan><tspan class="cls-10" x="43.58" y="0">a</tspan><tspan class="cls-11" x="69.09" y="0">y</tspan><tspan x="93.89" y="0">or </tspan><tspan class="cls-9" x="152.43" y="0">S</tspan><tspan class="cls-12" x="179.28" y="0">egu</tspan><tspan class="cls-13" x="265.96" y="0">r</tspan><tspan class="cls-14" x="283.77" y="0">idad</tspan></text><g class="cls-7"><text class="cls-16" transform="translate(121.45 175.28)">pa<tspan class="cls-17" x="65.19" y="0">r</tspan><tspan x="85.17" y="0">a tu bici</tspan></text></g><text class="cls-18" transform="translate(119.39 173.21)">pa<tspan class="cls-17" x="65.19" y="0">r</tspan><tspan x="85.17" y="0">a tu bici</tspan></text><g class="cls-7"><text class="cls-19" transform="translate(4.07 111.67)">¡</text></g><text class="cls-20" transform="translate(0 107.6)">¡</text><g class="cls-7"><text class="cls-21" transform="translate(461.1 111.41) rotate(180)">¡</text></g><text class="cls-22" transform="translate(456.6 106.91) rotate(180)">¡</text></g></g></g></svg>