<svg xmlns="http://www.w3.org/2000/svg" xmlns:xlink="http://www.w3.org/1999/xlink" viewBox="0 0 221.65 80.12"><defs><style>.cls-1{fill:#fff;filter:url(#luminosity-invert-noclip);}.cls-2{font-size:18.29px;font-family:Otterco-Bold, Otterco;font-weight:700;letter-spacing:0.15em;}.cls-2,.cls-7,.cls-8{fill:#09d0d6;}.cls-3{letter-spacing:0.16em;}.cls-4{letter-spacing:0.16em;}.cls-5{letter-spacing:0.16em;}.cls-6{letter-spacing:0.15em;}.cls-8{font-size:29.7px;font-family:Otterco-ExtraBold, Otterco;font-weight:800;}.cls-9{letter-spacing:0.01em;}.cls-10{letter-spacing:-0.05em;}.cls-11{letter-spacing:0em;}.cls-12{mask:url(#mask);}</style><filter id="luminosity-invert-noclip" x="0" y="0.13" width="77.76" height="78.99" filterUnits="userSpaceOnUse" color-interpolation-filters="sRGB"><feColorMatrix values="-1 0 0 0 1 0 -1 0 0 1 0 0 -1 0 1 0 0 0 1 0" result="invert"/><feFlood flood-color="#fff" result="bg"/><feBlend in="invert" in2="bg"/></filter><mask id="mask" x="0" y="0.13" width="77.76" height="78.99" maskUnits="userSpaceOnUse"><path class="cls-1" d="M38.75,52.23a6.85,6.85,0,0,1-5.32-2.53l-10-12.25A6.86,6.86,0,0,1,34.1,28.79l3.8,4.67,18-30A6.87,6.87,0,0,1,67.7,10.53L44.63,48.9a6.86,6.86,0,0,1-5.39,3.32Z"/></mask></defs><title>LogoRUBQMonoColor</title><g id="Capa_2" data-name="Capa 2"><g id="Capa_1-2" data-name="Capa 1"><text class="cls-2" transform="translate(84.75 17.94)">R<tspan class="cls-3" x="12.8" y="0">e</tspan><tspan class="cls-4" x="26.11" y="0">gi</tspan><tspan class="cls-5" x="47.91" y="0">s</tspan><tspan class="cls-4" x="57.66" y="0">t</tspan><tspan class="cls-6" x="66.83" y="0">r</tspan><tspan class="cls-4" x="75.68" y="0">o </tspan></text><path class="cls-7" d="M85.84,41.46V24.73h3.08V41.39a4.1,4.1,0,1,0,8.19,0V24.73h3.08V41.46a7.18,7.18,0,0,1-14.35,0ZM92,21.56h3.76l-2.11,2.57L91.07,24Z"/><path class="cls-7" d="M119.76,24.73V48.09h-3.18l-8.46-17.44V48.09h-3.05V24.73h3.18l8.47,17.44V24.73Z"/><path class="cls-7" d="M124.91,24.73H128V48.09h-3.08Z"/><path class="cls-7" d="M131.89,36.41a11.89,11.89,0,0,1,12.19-12.09,12.71,12.71,0,0,1,6.53,1.76V29.3a10,10,0,0,0-6.13-2c-5.48,0-9.41,3.93-9.41,9.11s3.93,9.11,9.41,9.11a10,10,0,0,0,6.13-2v3.22a12.62,12.62,0,0,1-6.53,1.76A11.89,11.89,0,0,1,131.89,36.41Z"/><path class="cls-7" d="M153.08,36.41A12.24,12.24,0,1,1,165.31,48.5,11.9,11.9,0,0,1,153.08,36.41Zm21.27,0a9,9,0,1,0-18.08,0,9,9,0,1,0,18.08,0Z"/><path class="cls-7" d="M204.41,36.41A11.33,11.33,0,0,1,192.9,48.09h-4.47V24.73h4.47A11.33,11.33,0,0,1,204.41,36.41Zm-3.18,0a8.4,8.4,0,0,0-8.4-8.77h-1.32V45.18h1.32A8.4,8.4,0,0,0,201.23,36.41Z"/><path class="cls-7" d="M220.39,45.18v2.91H208.31V24.73h11.92v2.91h-8.84v7.25h7.72V37.8h-7.72v7.38Z"/><text class="cls-8" transform="translate(84.75 72.66)">BICICL<tspan class="cls-9" x="80.74" y="0">E</tspan><tspan class="cls-10" x="94.61" y="0">T</tspan><tspan class="cls-11" x="107.05" y="0">A</tspan><tspan x="122.97" y="0">S</tspan></text><g class="cls-12"><path class="cls-7" d="M33,40.24a5.89,5.89,0,1,1,5.89,5.89A5.89,5.89,0,0,1,33,40.24Z"/><path class="cls-7" d="M69.15,40.24A30.27,30.27,0,1,0,38.88,70.5,30.27,30.27,0,0,0,69.15,40.24Zm-59.1,0A28.83,28.83,0,1,1,38.88,69.07,28.83,28.83,0,0,1,10.05,40.24Z"/><polygon class="cls-7" points="77.14 41.09 77.14 40.96 77.14 39.51 77.14 39.38 75.58 37.61 75.58 39.51 75.58 40.96 75.58 42.87 77.14 41.09"/><polygon class="cls-7" points="0.62 39.38 0.62 39.51 0.62 40.96 0.62 41.09 2.18 42.87 2.18 40.96 2.18 39.51 2.18 37.61 0.62 39.38"/><polygon class="cls-7" points="38.02 78.5 38.16 78.5 39.6 78.5 39.73 78.5 41.51 76.94 39.6 76.94 38.16 76.94 36.25 76.94 38.02 78.5"/><polygon class="cls-7" points="39.73 1.98 39.6 1.98 38.16 1.98 38.02 1.98 36.25 3.54 38.16 3.54 39.6 3.54 41.51 3.54 39.73 1.98"/><polygon class="cls-7" points="66.54 13.79 66.44 13.69 65.42 12.67 65.33 12.58 62.97 12.43 64.32 13.78 65.34 14.8 66.69 16.15 66.54 13.79"/><polygon class="cls-7" points="11.22 66.69 11.31 66.78 12.34 67.8 12.43 67.9 14.79 68.05 13.44 66.7 12.42 65.68 11.07 64.33 11.22 66.69"/><polygon class="cls-7" points="65.33 67.9 65.42 67.8 66.44 66.78 66.54 66.69 66.69 64.33 65.34 65.68 64.32 66.7 62.97 68.05 65.33 67.9"/><polygon class="cls-7" points="12.43 12.58 12.34 12.67 11.31 13.69 11.22 13.79 11.07 16.15 12.42 14.8 13.44 13.78 14.79 12.43 12.43 12.58"/><polygon class="cls-7" points="74.56 26.39 74.5 26.26 73.95 24.93 73.9 24.8 71.78 23.76 72.51 25.52 73.06 26.86 73.79 28.62 74.56 26.39"/><polygon class="cls-7" points="3.21 54.09 3.25 54.21 3.81 55.55 3.86 55.67 5.98 56.71 5.25 54.95 4.7 53.61 3.97 51.85 3.21 54.09"/><polygon class="cls-7" points="52.73 75.91 52.85 75.86 54.19 75.31 54.31 75.26 55.35 73.14 53.59 73.87 52.26 74.42 50.49 75.15 52.73 75.91"/><polygon class="cls-7" points="25.03 4.56 24.91 4.61 23.57 5.17 23.45 5.22 22.41 7.34 24.17 6.61 25.5 6.05 27.27 5.33 25.03 4.56"/><polygon class="cls-7" points="54.31 5.22 54.19 5.17 52.85 4.61 52.73 4.56 50.49 5.33 52.26 6.05 53.59 6.61 55.35 7.34 54.31 5.22"/><polygon class="cls-7" points="23.45 75.26 23.57 75.31 24.91 75.86 25.03 75.91 27.27 75.15 25.5 74.42 24.17 73.87 22.41 73.14 23.45 75.26"/><polygon class="cls-7" points="73.9 55.67 73.95 55.55 74.5 54.21 74.56 54.09 73.79 51.85 73.06 53.61 72.51 54.95 71.78 56.71 73.9 55.67"/><polygon class="cls-7" points="3.86 24.8 3.81 24.93 3.25 26.26 3.21 26.39 3.97 28.62 4.7 26.86 5.25 25.52 5.98 23.76 3.86 24.8"/><polygon class="cls-7" points="76.57 33.61 76.55 33.48 76.26 32.06 76.24 31.93 74.36 30.5 74.73 32.37 75.02 33.79 75.39 35.66 76.57 33.61"/><polygon class="cls-7" points="1.19 46.86 1.21 46.99 1.5 48.41 1.52 48.54 3.4 49.98 3.03 48.11 2.75 46.69 2.37 44.82 1.19 46.86"/><polygon class="cls-7" points="45.51 77.93 45.63 77.9 47.05 77.62 47.18 77.59 48.62 75.72 46.75 76.09 45.33 76.37 43.46 76.74 45.51 77.93"/><polygon class="cls-7" points="32.26 2.54 32.13 2.57 30.71 2.85 30.58 2.88 29.14 4.76 31.01 4.38 32.43 4.1 34.3 3.73 32.26 2.54"/><polygon class="cls-7" points="60.85 8.9 60.74 8.83 59.53 8.02 59.42 7.95 57.08 8.26 58.67 9.32 59.87 10.13 61.45 11.18 60.85 8.9"/><polygon class="cls-7" points="16.91 71.57 17.02 71.65 18.23 72.45 18.34 72.52 20.68 72.21 19.09 71.15 17.89 70.35 16.3 69.29 16.91 71.57"/><polygon class="cls-7" points="70.22 62.2 70.29 62.09 71.09 60.89 71.17 60.78 70.86 58.44 69.8 60.02 68.99 61.23 67.93 62.81 70.22 62.2"/><polygon class="cls-7" points="7.54 18.27 7.47 18.38 6.67 19.58 6.59 19.69 6.91 22.04 7.96 20.45 8.77 19.25 9.83 17.66 7.54 18.27"/><polygon class="cls-7" points="71.17 19.69 71.09 19.58 70.29 18.38 70.22 18.27 67.93 17.66 68.99 19.25 69.8 20.45 70.86 22.04 71.17 19.69"/><polygon class="cls-7" points="6.59 60.78 6.67 60.89 7.47 62.09 7.54 62.2 9.83 62.81 8.77 61.23 7.96 60.02 6.91 58.44 6.59 60.78"/><polygon class="cls-7" points="59.42 72.52 59.53 72.45 60.74 71.65 60.85 71.57 61.45 69.29 59.87 70.35 58.67 71.15 57.08 72.21 59.42 72.52"/><polygon class="cls-7" points="18.34 7.95 18.23 8.02 17.02 8.83 16.91 8.9 16.3 11.18 17.89 10.13 19.09 9.32 20.68 8.26 18.34 7.95"/><polygon class="cls-7" points="47.18 2.88 47.05 2.85 45.63 2.57 45.51 2.54 43.46 3.73 45.33 4.1 46.75 4.38 48.62 4.76 47.18 2.88"/><polygon class="cls-7" points="30.58 77.59 30.71 77.62 32.13 77.9 32.26 77.93 34.3 76.74 32.43 76.37 31.01 76.09 29.14 75.72 30.58 77.59"/><polygon class="cls-7" points="76.24 48.54 76.26 48.41 76.55 46.99 76.57 46.86 75.39 44.82 75.02 46.69 74.73 48.11 74.36 49.98 76.24 48.54"/><polygon class="cls-7" points="1.52 31.93 1.5 32.06 1.21 33.48 1.19 33.61 2.37 35.66 2.75 33.79 3.03 32.37 3.4 30.5 1.52 31.93"/><polygon class="cls-7" points="77.6 44.65 77.61 44.51 77.75 43.05 77.76 42.91 76.34 40.97 76.17 42.9 76.03 44.37 75.85 46.3 77.6 44.65"/><polygon class="cls-7" points="0.16 35.83 0.15 35.96 0.01 37.43 0 37.56 1.42 39.51 1.59 37.57 1.73 36.11 1.91 34.17 0.16 35.83"/><polygon class="cls-7" points="34.47 78.96 34.61 78.97 36.07 79.11 36.21 79.12 38.15 77.7 36.22 77.52 34.75 77.39 32.82 77.21 34.47 78.96"/><polygon class="cls-7" points="43.29 1.51 43.15 1.5 41.69 1.37 41.55 1.36 39.61 2.78 41.54 2.95 43.01 3.09 44.94 3.26 43.29 1.51"/><polygon class="cls-7" points="69.38 15.97 69.29 15.87 68.35 14.74 68.26 14.63 65.89 14.26 67.13 15.76 68.07 16.89 69.31 18.38 69.38 15.97"/><polygon class="cls-7" points="8.38 64.5 8.47 64.6 9.41 65.74 9.5 65.84 11.88 66.21 10.63 64.72 9.69 63.59 8.45 62.09 8.38 64.5"/><polygon class="cls-7" points="63.14 70.73 63.25 70.65 64.38 69.71 64.48 69.62 64.85 67.24 63.36 68.48 62.23 69.43 60.74 70.67 63.14 70.73"/><polygon class="cls-7" points="14.62 9.74 14.51 9.83 13.38 10.77 13.28 10.85 12.91 13.23 14.4 11.99 15.53 11.05 17.02 9.8 14.62 9.74"/><polygon class="cls-7" points="76.34 29.49 76.3 29.36 75.86 27.96 75.82 27.83 73.77 26.57 74.35 28.43 74.78 29.84 75.36 31.69 76.34 29.49"/><polygon class="cls-7" points="1.42 50.98 1.46 51.11 1.9 52.52 1.94 52.65 3.99 53.9 3.41 52.05 2.98 50.64 2.4 48.78 1.42 50.98"/><polygon class="cls-7" points="49.63 77.7 49.75 77.66 51.16 77.22 51.29 77.18 52.54 75.13 50.69 75.7 49.28 76.14 47.43 76.72 49.63 77.7"/><polygon class="cls-7" points="28.13 2.78 28.01 2.82 26.6 3.25 26.47 3.29 25.22 5.35 27.07 4.77 28.48 4.33 30.33 3.76 28.13 2.78"/><polygon class="cls-7" points="57.77 6.15 57.65 6.09 56.35 5.4 56.23 5.34 53.89 5.91 55.61 6.81 56.91 7.5 58.63 8.4 57.77 6.15"/><polygon class="cls-7" points="19.99 74.32 20.11 74.39 21.41 75.07 21.53 75.13 23.87 74.57 22.15 73.66 20.85 72.98 19.13 72.08 19.99 74.32"/><polygon class="cls-7" points="72.97 59.13 73.03 59.01 73.72 57.7 73.78 57.59 73.21 55.25 72.31 56.97 71.62 58.27 70.72 59.99 72.97 59.13"/><polygon class="cls-7" points="4.79 21.35 4.73 21.46 4.04 22.77 3.98 22.89 4.55 25.23 5.45 23.51 6.14 22.2 7.04 20.49 4.79 21.35"/><polygon class="cls-7" points="77.72 37.01 77.7 36.87 77.55 35.41 77.53 35.27 75.76 33.64 75.97 35.58 76.12 37.04 76.33 38.97 77.72 37.01"/><polygon class="cls-7" points="0.04 43.47 0.06 43.6 0.21 45.07 0.23 45.2 2 46.83 1.79 44.9 1.64 43.43 1.43 41.5 0.04 43.47"/><polygon class="cls-7" points="42.11 79.08 42.24 79.06 43.71 78.91 43.84 78.89 45.47 77.12 43.54 77.33 42.08 77.48 40.15 77.68 42.11 79.08"/><polygon class="cls-7" points="35.65 1.4 35.52 1.41 34.05 1.57 33.92 1.58 32.29 3.35 34.22 3.15 35.68 3 37.61 2.79 35.65 1.4"/><polygon class="cls-7" points="64.06 10.49 63.95 10.41 62.81 9.48 62.7 9.39 60.3 9.49 61.81 10.72 62.95 11.64 64.46 12.86 64.06 10.49"/><polygon class="cls-7" points="13.7 69.98 13.81 70.07 14.95 71 15.06 71.08 17.46 70.98 15.95 69.76 14.81 68.83 13.3 67.61 13.7 69.98"/><polygon class="cls-7" points="68.63 65.42 68.71 65.31 69.64 64.17 69.72 64.06 69.62 61.66 68.4 63.17 67.47 64.31 66.25 65.82 68.63 65.42"/><polygon class="cls-7" points="9.13 15.06 9.05 15.16 8.12 16.31 8.04 16.41 8.14 18.82 9.36 17.31 10.29 16.16 11.51 14.65 9.13 15.06"/><polygon class="cls-7" points="73.53 22.39 73.46 22.27 72.76 20.98 72.69 20.86 70.43 20.03 71.36 21.74 72.06 23.03 72.99 24.74 73.53 22.39"/><polygon class="cls-7" points="4.24 58.08 4.3 58.2 5 59.5 5.07 59.62 7.33 60.44 6.4 58.74 5.7 57.44 4.77 55.74 4.24 58.08"/><polygon class="cls-7" points="56.73 74.88 56.85 74.82 58.14 74.11 58.26 74.05 59.09 71.79 57.38 72.72 56.09 73.42 54.38 74.35 56.73 74.88"/><polygon class="cls-7" points="21.03 5.59 20.91 5.66 19.62 6.36 19.5 6.42 18.67 8.68 20.38 7.76 21.67 7.05 23.38 6.13 21.03 5.59"/><polygon class="cls-7" points="50.76 3.12 50.63 3.08 49.22 2.66 49.09 2.63 46.9 3.64 48.77 4.19 50.18 4.61 52.04 5.16 50.76 3.12"/><polygon class="cls-7" points="27 77.36 27.13 77.39 28.54 77.81 28.67 77.85 30.86 76.84 28.99 76.29 27.58 75.87 25.72 75.32 27 77.36"/><polygon class="cls-7" points="76 52.12 76.04 51.99 76.45 50.57 76.49 50.44 75.48 48.26 74.93 50.12 74.51 51.53 73.96 53.4 76 52.12"/><polygon class="cls-7" points="1.76 28.36 1.72 28.49 1.31 29.9 1.27 30.03 2.28 32.21 2.83 30.35 3.25 28.94 3.8 27.08 1.76 28.36"/><path class="cls-7" d="M76.94,40.24A38.06,38.06,0,1,0,38.88,78.29,38.06,38.06,0,0,0,76.94,40.24Zm-69.31,0A31.25,31.25,0,1,1,38.88,71.49,31.25,31.25,0,0,1,7.63,40.24Z"/><path class="cls-7" d="M44.24,40.24a5.36,5.36,0,1,0-5.36,5.36A5.36,5.36,0,0,0,44.24,40.24Zm-.4,0a.6.6,0,0,1-1.19,0,.6.6,0,1,1,1.19,0Zm-1.45-3.51a.6.6,0,1,1-.85,0A.61.61,0,0,1,42.39,36.73Zm-4.11-.86a.6.6,0,0,1,1.2,0,.6.6,0,1,1-1.2,0Zm-2.91,1.7a.6.6,0,0,1,0-.84.61.61,0,0,1,.85,0,.6.6,0,1,1-.85.84Zm-1.45,2.67a.6.6,0,1,1,1.19,0,.6.6,0,0,1-1.19,0Zm1.71,0a3.25,3.25,0,1,1,3.25,3.25A3.25,3.25,0,0,1,35.63,40.24Zm-.26,3.5a.6.6,0,0,1,0-.84.61.61,0,0,1,.85,0,.6.6,0,1,1-.85.84Zm6.17,0a.6.6,0,0,1,0-.84.61.61,0,0,1,.85,0,.6.6,0,1,1-.85.84Zm-2.06.86a.6.6,0,1,1-1.2,0,.6.6,0,0,1,1.2,0Z"/><path class="cls-7" d="M32.11,40.11H9.62v.25H32.11s0-.08,0-.12S32.11,40.16,32.11,40.11Z"/><path class="cls-7" d="M45.65,40.36H68.14v-.25H45.65s0,.08,0,.13S45.65,40.32,45.65,40.36Z"/><rect class="cls-7" x="66.2" y="40.01" width="1.94" height="0.45"/><rect class="cls-7" x="9.62" y="40.01" width="1.94" height="0.45"/><path class="cls-7" d="M39,69.5V47h-.24V69.5Z"/><path class="cls-7" d="M39,33.47V11h-.24v22.5H39Z"/><rect class="cls-7" x="38.66" y="67.56" width="0.45" height="1.94"/><rect class="cls-7" x="38.66" y="10.97" width="0.45" height="1.94"/><path class="cls-7" d="M43.75,35.54,59.66,19.63l-.17-.17L43.58,35.36Z"/><path class="cls-7" d="M18.27,61,34.18,45.11,34,44.94,18.1,60.84Z"/><rect class="cls-7" x="57.92" y="20.01" width="1.94" height="0.45" transform="translate(2.94 47.56) rotate(-45)"/><rect class="cls-7" x="17.9" y="60.02" width="1.94" height="0.45" transform="translate(-37.07 30.99) rotate(-45)"/><path class="cls-7" d="M34.18,35.36,18.27,19.46l-.17.17L34,35.54Z"/><path class="cls-7" d="M43.58,45.11,59.49,61l.17-.18L43.75,44.94C43.7,45,43.64,45.05,43.58,45.11Z"/><path class="cls-7" d="M41.17,42.35a1.45,1.45,0,0,1-.18.17"/><path class="cls-7" d="M43.58,45.11c.06-.06.12-.11.17-.17"/><rect class="cls-7" x="58.66" y="59.27" width="0.45" height="1.94" transform="translate(-25.35 59.28) rotate(-45)"/><rect class="cls-7" x="18.65" y="19.26" width="0.45" height="1.94" transform="translate(-8.78 19.27) rotate(-45)"/><path class="cls-7" d="M65.92,29l-.1-.22L45.08,37.51l.09.22Z"/><path class="cls-7" d="M11.94,51.66,32.68,43l-.09-.23L11.84,51.43Z"/><rect class="cls-7" x="64.01" y="29.08" width="1.94" height="0.45" transform="translate(-6.28 27.38) rotate(-22.73)"/><rect class="cls-7" x="11.81" y="50.95" width="1.94" height="0.45" transform="translate(-18.78 8.91) rotate(-22.73)"/><path class="cls-7" d="M27.68,13.2l-.22.09L36.15,34l.23-.09Z"/><path class="cls-7" d="M50.07,67.27l.23-.09L41.61,46.44l-.23.09Z"/><rect class="cls-7" x="49.59" y="65.36" width="0.45" height="1.94" transform="translate(-21.77 24.41) rotate(-22.73)"/><rect class="cls-7" x="27.72" y="13.17" width="0.45" height="1.94" transform="translate(-3.29 11.9) rotate(-22.73)"/><path class="cls-7" d="M50.08,13.2l-.22-.09L41.33,33.93l.23.08Z"/><path class="cls-7" d="M27.9,67.36l8.53-20.82-.23-.08L27.68,67.27Z"/><rect class="cls-7" x="48.63" y="13.83" width="1.94" height="0.45" transform="matrix(0.38, -0.93, 0.93, 0.38, 17.81, 54.63)"/><rect class="cls-7" x="27.19" y="66.2" width="1.94" height="0.45" transform="translate(-43.98 67.32) rotate(-67.74)"/><path class="cls-7" d="M65.91,51.44l.1-.23L45.19,42.69c0,.07,0,.15-.09.23Z"/><path class="cls-7" d="M11.85,29l-.1.23,20.82,8.53a1.57,1.57,0,0,1,.09-.23Z"/><rect class="cls-7" x="64.84" y="49.99" width="0.45" height="1.94" transform="translate(-6.74 91.87) rotate(-67.74)"/><rect class="cls-7" x="12.47" y="28.55" width="0.45" height="1.94" transform="translate(-19.43 30.08) rotate(-67.73)"/></g><path class="cls-7" d="M39.21,49.59a5.2,5.2,0,0,1-4-1.91L25,35.16a5.19,5.19,0,1,1,8-6.55l5.52,6.78L58.33,2.52a5.19,5.19,0,1,1,8.9,5.34L43.66,47.07a5.19,5.19,0,0,1-4.08,2.51Z"/></g></g></svg>