<svg xmlns="http://www.w3.org/2000/svg" viewBox="0 0 264.39 83.15"><defs><style>.cls-1{font-size:32.77px;fill:#00a4b1;font-family:Otterco-ExtraBold, Otterco;font-weight:800;}.cls-2{letter-spacing:-0.01em;}.cls-3{letter-spacing:0em;}.cls-4{letter-spacing:0.02em;}.cls-5{letter-spacing:0em;}.cls-6{letter-spacing:0em;}.cls-7{letter-spacing:-0.01em;}.cls-8{letter-spacing:-0.01em;}</style></defs><title>LogoFormularioRegistro</title><g id="Capa_2" data-name="Capa 2"><g id="Capa_1-2" data-name="Capa 1"><text class="cls-1" transform="translate(79.9 40.28)"><tspan class="cls-2">F</tspan><tspan x="13.96" y="0">OR</tspan><tspan class="cls-3" x="57.77" y="0">M</tspan><tspan x="81.4" y="0">U</tspan><tspan class="cls-4" x="99.65" y="0">L</tspan><tspan x="113.71" y="0">ARIO</tspan><tspan x="0" y="29.32">DE R</tspan><tspan class="cls-5" x="59.15" y="29.32">E</tspan><tspan class="cls-6" x="74.16" y="29.32">GI</tspan><tspan class="cls-7" x="105.42" y="29.32">S</tspan><tspan x="120.43" y="29.32">T</tspan><tspan class="cls-8" x="135.77" y="29.32">R</tspan><tspan x="153.69" y="29.32">O</tspan></text><g id="q1vS72"><path d="M3.31,47.64C2.23,37.41,1.21,27.18,0,17-.22,14.72,1,13.37,2.29,12a4.59,4.59,0,0,1,2.41-.89A21.23,21.23,0,0,1,9,10.74c.53,0,1.5-.12,1.74.85.12.47.84.61.45,1.45a2.69,2.69,0,0,1-1.77,1.61,29,29,0,0,1-3.76.45c-2,.23-2.15.34-1.94,2.27Q6.83,47.31,10,77.24c.2,1.81,1,2.44,2.76,2.25L58,74.72a6.36,6.36,0,0,0,.75-.08c1.59-.31,2.22-1.11,2.06-2.68q-1-9.57-2-19.12c0-.42-.1-.84-.13-1.26-.12-1.39.14-1.83,1.16-2a2.08,2.08,0,0,1,2.36,1.61c0,.25.05.51.08.76.71,6.79,1.44,13.58,2.14,20.37a5.42,5.42,0,0,1-4.69,5.77c-15.77,1.67-31.53,3.31-47.29,5A5.72,5.72,0,0,1,7,80.49a3.5,3.5,0,0,1-.36-1.66Q5,63.25,3.31,47.64Z"/><path d="M60,21.89c.51.2,1.2.25,1.48.61a2.28,2.28,0,0,1,.2,2.53c-1.6,2.94-3.23,5.86-4.81,8.81-2.3,4.27-4.42,8.64-6.88,12.81-1.83,3.1-3.35,6.35-5.16,9.45a4,4,0,0,0-.7,1.49c-.05.71-.06,1.78.36,2.1.75.57.9-.81,1.43-.91,1.4-.26,1.36-1.6,1.82-2.4,2.48-4.35,4.77-8.81,7.11-13.23,2.52-4.77,5-9.56,7.56-14.33.83-1.55,1.72-3.09,2.7-4.55.46-.69.33-1.05-.27-1.4a20.58,20.58,0,0,0-2.73-1.48,2.63,2.63,0,0,1-1.3-1.29c-.19-.3-.25-.36-.11-.74a15.9,15.9,0,0,1,2.58-4.84c.36-.45.62-.46,1.22-.28,2.18.64,3.84,2.24,5.92,3a1.75,1.75,0,0,1,1.14,2A1.85,1.85,0,0,1,70.05,21c-1.2.13-.46.49-.26.95a1.76,1.76,0,0,1-.12,1.16,10.3,10.3,0,0,1-1.18,2.56c-1.88,2.44-3,5.31-4.46,8-1.76,3.19-3.53,6.39-5.19,9.65-2.19,4.32-4.67,8.49-6.83,12.83a26.91,26.91,0,0,1-2.38,4.15,25.3,25.3,0,0,1-3.89,3.53c-.84.74-1.69,1.47-2.5,2.24a2.24,2.24,0,0,1-2.18.66,2.33,2.33,0,0,1-1.35-2.19c0-.54.28-1.07.32-1.61.11-1.82.5-3.61.58-5.45.07-1.68,1.07-3.25,1.9-4.78,2.88-5.31,5.56-10.73,8.55-16,2.28-4,4.39-8.11,6.49-12.22.26-.52,1-.89,1-1.39C58.73,22.17,59.24,22.1,60,21.89Z"/><path d="M29.35,19.21c-3.68.39-7.36.79-11,1.16-.63.07-1.26.29-1.87-.28A3.79,3.79,0,0,1,15,18q-.59-4.51-1-9A3,3,0,0,1,16.67,5.8c1.33-.19,2.67-.34,4-.42.67,0,1.27-.29,1.36-.85.16-1,.94-1.52,1.42-2.26C25-.08,28.83-.9,31.85,1.24c.47.33,1.12.69,1.25,1.16C33.55,4,34.58,4,35.89,3.78c.91-.17,1.84-.18,2.76-.32a3,3,0,0,1,2.52.62,2.89,2.89,0,0,1,1.06,2.37c.29,2.77.6,5.53.87,8.29.21,2.16-.53,3.07-2.7,3.3C36.72,18.45,33,18.82,29.35,19.21Zm-.15-3.55c3.11-.32,6.21-.67,9.31-1,.68-.07,1.06-.16.94-1Q39,10.8,38.84,7.9C38.78,7,38.35,7,37.7,7.13s-1.51.19-2.27.24a13.77,13.77,0,0,1-3.2.1c-1.18-.21-1.08-1.7-1.84-2.42-.1-.08,0-.35-.1-.47a2.84,2.84,0,0,0-3.39-.41,2.46,2.46,0,0,0-1.37,2.76,1,1,0,0,1-.81,1.2,7.06,7.06,0,0,1-1.32.49c-1.51.21-3,.35-4.53.49-.46.05-.79.11-.72.71.24,2.1.46,4.19.66,6.29.06.59.36.62.84.57C22.83,16.33,26,16,29.2,15.66Z"/><path d="M12.44,32.82c-.17-1.59-.32-3.18-.51-4.77-.07-.57-.06-.91.68-1,3.35-.32,6.7-.68,10.05-1.05.49-.06.78,0,.83.57q.53,5.16,1.09,10.3c.07.6-.24.67-.71.72-3.36.34-6.71.68-10,1.07-.78.09-.81-.29-.86-.83C12.8,36.17,12.61,34.5,12.44,32.82ZM16,32.46h0c.11.74,0,1.89.4,2.11.61.34,1.58,0,2.4,0,.33,0,.66-.1,1-.1.68,0,1.1-.14.94-1-.22-1.14-.32-2.3-.47-3.46-1.31.08-2.63.14-3.95.27-.17,0-.41.43-.42.66A9.72,9.72,0,0,0,16,32.46Z"/><path d="M14.09,49.32c-.1-1.83-.21-3.66-.32-5.48,1.75-.21,3.49-.43,5.24-.63s3.52-.36,5.27-.57c.56-.06.92-.07,1,.68.31,3.36.68,6.71,1.05,10,.05.49,0,.78-.57.84q-5.16.52-10.3,1.09c-.6.06-.68-.23-.73-.71-.16-1.76-.36-3.52-.55-5.28Zm6,1.92v0c.74-.12,1.89,0,2.11-.4.35-.61.05-1.58,0-2.4,0-.33-.1-.66-.1-1,0-.67-.13-1.1-1-.94-1.14.21-2.3.31-3.46.46.07,1.23.18,2.47.2,3.7,0,.76.41.78,1,.68S19.68,51.28,20.1,51.24Z"/><path d="M27.47,65.08c.19,1.83.38,3.67.58,5.5-1.9.26-3.79.53-5.69.77-1.42.18-2.85.31-4.27.46s-1.52.14-1.67-1.23q-.5-4.52-1-9c-.12-1.14-.1-1.15,1.13-1.28,3-.33,6-.64,9-.95,1.26-.13,1.27-.12,1.42,1.24.17,1.51.32,3,.48,4.52ZM22,67.83c2.26-.23,2.26-.23,2-2.38-.05-.5-.13-1-.15-1.5s-.12-1-.87-.82a30.09,30.09,0,0,1-3,.32c-.49,0-.79.15-.69.74s.11,1,.16,1.5C19.71,68.07,19.71,68.07,22,67.83Z"/><path d="M38.07,24.91c2.59-.27,5.18-.5,7.76-.85a3.36,3.36,0,0,1,1.85.35c1.19.53,1.4,1.45.62,2.38a3.85,3.85,0,0,1-2.69,1.41c-4.76.48-9.52,1-14.28,1.49a2.73,2.73,0,0,1-1.64-.21c-1.31-.66-1.55-.76-1.51-1.82a2.21,2.21,0,0,1,1.88-1.9C32.73,25.46,35.4,25.19,38.07,24.91Z"/><path d="M58.18,12.92c.08.76.19,1.5.24,2.26a2.1,2.1,0,0,1-2.06,2.21A1.18,1.18,0,0,1,55,16.32c-.19-1.33-.27-2.67-.45-4A4.34,4.34,0,0,0,54.11,11c-.47-.92-.5-.92-1.4-.83-1.42.13-2.83.3-4.25.44a2.4,2.4,0,0,1-2.37-1.3c-.34-1,0-1.53,1.18-2.28,1.88-1.15,6.84-1,8.59.31a4.26,4.26,0,0,1,1.3,1.14,10.42,10.42,0,0,1,.8,2.48A16.37,16.37,0,0,1,58.18,12.92Z"/><path d="M37.25,35.18l-5.52.58c-.33,0-.67.1-1,.1-.63,0-1.8-.92-1.83-1.4a2.6,2.6,0,0,1,1.59-2.13c4.18-.45,8.36-.91,12.54-1.31a2.16,2.16,0,0,1,2,2.52,1.36,1.36,0,0,1-1.29,1C41.59,34.68,39.42,35,37.25,35.18Z"/><path d="M35.93,49.06c-1.17.12-2.34.2-3.5.39A1.64,1.64,0,0,1,31.1,49c-.48-.37-.91-.73-.82-1.41a2.55,2.55,0,0,1,1.61-1.65c2.5-.28,5-.55,7.5-.79a2.25,2.25,0,0,1,2,1.48,2.09,2.09,0,0,1-1.7,2C38.43,48.82,37.18,48.93,35.93,49.06Z"/></g></g></g></svg>