<svg xmlns="http://www.w3.org/2000/svg" viewBox="0 0 227.44 90.76"><defs><style>.cls-1{font-size:18.76px;font-family:Otterco-Bold, Otterco;font-weight:700;letter-spacing:0.15em;}.cls-1,.cls-7{fill:#5b5a5a;}.cls-2{letter-spacing:0.16em;}.cls-3{letter-spacing:0.16em;}.cls-4{letter-spacing:0.16em;}.cls-5{letter-spacing:0.16em;}.cls-6{letter-spacing:0.15em;}.cls-8{font-size:30.47px;fill:#00a4b1;font-family:Otterco-ExtraBold, Otterco;font-weight:800;}.cls-9{letter-spacing:0.01em;}.cls-10{letter-spacing:-0.05em;}.cls-11{letter-spacing:0em;}.cls-12{fill:#322717;}.cls-13{fill:#147183;}.cls-14{fill:#192e4f;}.cls-15{fill:#0c1823;}.cls-16{fill:#52b6cb;}.cls-17{fill:#ebebeb;}.cls-18{fill:#09d0d6;}</style></defs><title>LogoRUBQ</title><g id="Capa_2" data-name="Capa 2"><g id="Capa_1-2" data-name="Capa 1"><text class="cls-1" transform="translate(86.97 26.96)">R<tspan class="cls-2" x="13.13" y="0">e</tspan><tspan class="cls-3" x="26.79" y="0">gi</tspan><tspan class="cls-4" x="49.16" y="0">s</tspan><tspan class="cls-5" x="59.16" y="0">t</tspan><tspan class="cls-6" x="68.58" y="0">r</tspan><tspan class="cls-3" x="77.66" y="0">o </tspan></text><path class="cls-7" d="M88.08,51.09V33.92h3.16V51a4.21,4.21,0,1,0,8.41,0V33.92h3.16V51.09a7.37,7.37,0,0,1-14.73,0Zm6.31-20.41h3.85l-2.16,2.63-2.63-.14Z"/><path class="cls-7" d="M122.9,33.92v24h-3.27L110.94,40V57.9h-3.12v-24h3.26l8.69,17.9V33.92Z"/><path class="cls-7" d="M128.18,33.92h3.16v24h-3.16Z"/><path class="cls-7" d="M135.33,45.91a12.2,12.2,0,0,1,12.51-12.4,13.05,13.05,0,0,1,6.71,1.8v3.3a10.34,10.34,0,0,0-6.29-2c-5.63,0-9.66,4-9.66,9.35s4,9.35,9.66,9.35a10.34,10.34,0,0,0,6.29-2v3.3a13.05,13.05,0,0,1-6.71,1.8A12.2,12.2,0,0,1,135.33,45.91Z"/><path class="cls-7" d="M157.08,45.91a12.57,12.57,0,1,1,12.55,12.4A12.21,12.21,0,0,1,157.08,45.91Zm21.83,0a9.28,9.28,0,1,0-9.28,9.35A9.12,9.12,0,0,0,178.91,45.91Z"/><path class="cls-7" d="M209.76,45.91a11.64,11.64,0,0,1-11.82,12h-4.58v-24h4.58A11.63,11.63,0,0,1,209.76,45.91Zm-3.27,0c0-5.14-3.72-9-8.62-9h-1.35v18h1.35C202.77,54.91,206.49,51.05,206.49,45.91Z"/><path class="cls-7" d="M226.16,54.91v3H213.75v-24H226v3h-9.07v7.44h7.93v3h-7.93v7.58Z"/><text class="cls-8" transform="translate(86.97 83.11)">BICICL<tspan class="cls-9" x="82.85" y="0">E</tspan><tspan class="cls-10" x="97.08" y="0">T</tspan><tspan class="cls-11" x="109.85" y="0">A</tspan><tspan x="126.18" y="0">S</tspan></text><path class="cls-12" d="M33.85,49.84a6,6,0,1,1,6,6A6.05,6.05,0,0,1,33.85,49.84Z"/><path class="cls-13" d="M71,49.84A31.06,31.06,0,1,0,39.9,80.9,31.06,31.06,0,0,0,71,49.84Zm-60.65,0A29.59,29.59,0,1,1,39.9,79.42,29.59,29.59,0,0,1,10.31,49.84Z"/><polygon class="cls-12" points="79.16 50.71 79.16 50.58 79.16 49.09 79.16 48.96 77.56 47.14 77.56 49.09 77.56 50.58 77.56 52.53 79.16 50.71"/><polygon class="cls-12" points="0.64 48.96 0.64 49.09 0.64 50.58 0.64 50.71 2.24 52.53 2.24 50.58 2.24 49.09 2.24 47.14 0.64 48.96"/><polygon class="cls-12" points="39.02 89.1 39.16 89.1 40.64 89.1 40.77 89.1 42.59 87.5 40.64 87.5 39.16 87.5 37.2 87.5 39.02 89.1"/><polygon class="cls-12" points="40.77 10.57 40.64 10.57 39.16 10.57 39.02 10.57 37.2 12.18 39.16 12.18 40.64 12.18 42.59 12.18 40.77 10.57"/><polygon class="cls-12" points="68.28 22.7 68.18 22.6 67.13 21.55 67.04 21.45 64.62 21.3 66 22.68 67.05 23.73 68.43 25.11 68.28 22.7"/><polygon class="cls-12" points="11.52 76.98 11.61 77.07 12.66 78.12 12.76 78.22 15.18 78.37 13.79 76.99 12.74 75.94 11.36 74.56 11.52 76.98"/><polygon class="cls-12" points="67.04 78.22 67.13 78.12 68.18 77.07 68.28 76.98 68.43 74.56 67.05 75.94 66 76.99 64.62 78.37 67.04 78.22"/><polygon class="cls-12" points="12.76 21.45 12.66 21.55 11.61 22.6 11.52 22.7 11.36 25.11 12.74 23.73 13.79 22.68 15.18 21.3 12.76 21.45"/><polygon class="cls-12" points="76.5 35.62 76.45 35.5 75.89 34.13 75.83 34 73.66 32.93 74.41 34.74 74.97 36.11 75.72 37.92 76.5 35.62"/><polygon class="cls-12" points="3.29 64.05 3.34 64.17 3.91 65.55 3.96 65.67 6.14 66.74 5.39 64.93 4.82 63.56 4.07 61.76 3.29 64.05"/><polygon class="cls-12" points="54.11 86.44 54.24 86.39 55.61 85.83 55.73 85.77 56.8 83.6 54.99 84.34 53.62 84.91 51.81 85.66 54.11 86.44"/><polygon class="cls-12" points="25.68 13.23 25.56 13.28 24.19 13.85 24.06 13.9 22.99 16.08 24.8 15.33 26.17 14.76 27.98 14.01 25.68 13.23"/><polygon class="cls-12" points="55.73 13.9 55.61 13.85 54.24 13.28 54.11 13.23 51.81 14.01 53.62 14.76 54.99 15.33 56.8 16.08 55.73 13.9"/><polygon class="cls-12" points="24.06 85.77 24.19 85.83 25.56 86.39 25.68 86.44 27.98 85.66 26.17 84.91 24.8 84.34 22.99 83.6 24.06 85.77"/><polygon class="cls-12" points="75.83 65.67 75.89 65.55 76.45 64.17 76.5 64.05 75.72 61.76 74.97 63.56 74.41 64.93 73.66 66.74 75.83 65.67"/><polygon class="cls-12" points="3.96 34 3.91 34.13 3.34 35.5 3.29 35.62 4.07 37.92 4.82 36.11 5.39 34.74 6.14 32.93 3.96 34"/><polygon class="cls-12" points="78.57 43.04 78.55 42.91 78.26 41.45 78.23 41.32 76.31 39.84 76.69 41.76 76.98 43.22 77.36 45.14 78.57 43.04"/><polygon class="cls-12" points="1.22 56.63 1.25 56.77 1.53 58.22 1.56 58.36 3.49 59.83 3.11 57.91 2.82 56.45 2.44 54.54 1.22 56.63"/><polygon class="cls-12" points="46.7 88.51 46.83 88.49 48.28 88.2 48.42 88.17 49.89 86.25 47.97 86.63 46.52 86.92 44.6 87.3 46.7 88.51"/><polygon class="cls-12" points="33.1 11.16 32.97 11.19 31.51 11.47 31.38 11.5 29.9 13.43 31.82 13.05 33.28 12.76 35.2 12.38 33.1 11.16"/><polygon class="cls-12" points="62.44 17.68 62.33 17.6 61.09 16.78 60.98 16.7 58.58 17.02 60.2 18.11 61.44 18.94 63.06 20.02 62.44 17.68"/><polygon class="cls-12" points="17.36 81.99 17.47 82.07 18.7 82.89 18.81 82.97 21.22 82.65 19.59 81.56 18.36 80.74 16.73 79.65 17.36 81.99"/><polygon class="cls-12" points="72.05 72.38 72.13 72.27 72.95 71.03 73.03 70.92 72.71 68.51 71.62 70.14 70.8 71.38 69.71 73 72.05 72.38"/><polygon class="cls-12" points="7.74 27.3 7.67 27.41 6.84 28.64 6.76 28.75 7.09 31.16 8.17 29.53 9 28.3 10.08 26.67 7.74 27.3"/><polygon class="cls-12" points="73.03 28.75 72.95 28.64 72.13 27.41 72.05 27.3 69.71 26.67 70.8 28.3 71.62 29.53 72.71 31.16 73.03 28.75"/><polygon class="cls-12" points="6.76 70.92 6.84 71.03 7.67 72.27 7.74 72.38 10.08 73 9 71.38 8.17 70.14 7.09 68.51 6.76 70.92"/><polygon class="cls-12" points="60.98 82.97 61.09 82.89 62.33 82.07 62.44 81.99 63.06 79.65 61.44 80.74 60.2 81.56 58.58 82.65 60.98 82.97"/><polygon class="cls-12" points="18.81 16.7 18.7 16.78 17.47 17.6 17.36 17.68 16.73 20.02 18.36 18.94 19.59 18.11 21.22 17.02 18.81 16.7"/><polygon class="cls-12" points="48.42 11.5 48.28 11.47 46.83 11.19 46.7 11.16 44.6 12.38 46.52 12.76 47.97 13.05 49.89 13.43 48.42 11.5"/><polygon class="cls-12" points="31.38 88.17 31.51 88.2 32.97 88.49 33.1 88.51 35.2 87.3 33.28 86.92 31.82 86.63 29.9 86.25 31.38 88.17"/><polygon class="cls-12" points="78.23 58.36 78.26 58.22 78.55 56.77 78.57 56.63 77.36 54.54 76.98 56.45 76.69 57.91 76.31 59.83 78.23 58.36"/><polygon class="cls-12" points="1.56 41.32 1.53 41.45 1.25 42.91 1.22 43.04 2.44 45.14 2.82 43.22 3.11 41.76 3.49 39.84 1.56 41.32"/><polygon class="cls-14" points="79.63 54.36 79.64 54.22 79.78 52.72 79.79 52.58 78.34 50.59 78.16 52.57 78.02 54.07 77.84 56.06 79.63 54.36"/><polygon class="cls-14" points="0.16 45.31 0.15 45.45 0.01 46.95 0 47.09 1.46 49.09 1.64 47.1 1.77 45.6 1.96 43.62 0.16 45.31"/><polygon class="cls-14" points="35.37 89.57 35.51 89.58 37.02 89.72 37.15 89.73 39.15 88.28 37.16 88.1 35.66 87.96 33.67 87.78 35.37 89.57"/><polygon class="cls-14" points="44.42 10.1 44.28 10.09 42.78 9.95 42.64 9.94 40.65 11.4 42.63 11.58 44.13 11.71 46.12 11.89 44.42 10.1"/><polygon class="cls-14" points="71.19 24.94 71.1 24.83 70.14 23.67 70.05 23.57 67.61 23.18 68.88 24.71 69.85 25.88 71.13 27.41 71.19 24.94"/><polygon class="cls-14" points="8.6 74.73 8.69 74.84 9.66 76 9.75 76.11 12.19 76.49 10.91 74.96 9.94 73.8 8.67 72.27 8.6 74.73"/><polygon class="cls-14" points="64.79 81.13 64.9 81.04 66.06 80.08 66.17 79.99 66.55 77.55 65.02 78.82 63.86 79.79 62.33 81.06 64.79 81.13"/><polygon class="cls-14" points="15 18.54 14.89 18.63 13.73 19.6 13.63 19.68 13.24 22.13 14.78 20.85 15.94 19.88 17.47 18.61 15 18.54"/><polygon class="cls-14" points="78.34 38.81 78.3 38.68 77.85 37.23 77.81 37.1 75.7 35.82 76.29 37.72 76.74 39.16 77.33 41.06 78.34 38.81"/><polygon class="cls-14" points="1.46 60.86 1.5 60.99 1.95 62.44 1.99 62.57 4.1 63.85 3.5 61.95 3.06 60.51 2.46 58.61 1.46 60.86"/><polygon class="cls-14" points="50.92 88.28 51.05 88.24 52.5 87.79 52.63 87.75 53.92 85.64 52.01 86.23 50.57 86.68 48.67 87.27 50.92 88.28"/><polygon class="cls-14" points="28.87 11.4 28.74 11.44 27.3 11.89 27.16 11.93 25.88 14.04 27.78 13.44 29.22 12.99 31.13 12.4 28.87 11.4"/><polygon class="cls-14" points="59.28 14.86 59.16 14.79 57.82 14.09 57.7 14.03 55.3 14.61 57.06 15.54 58.4 16.24 60.16 17.16 59.28 14.86"/><polygon class="cls-14" points="20.51 84.81 20.63 84.88 21.97 85.58 22.09 85.65 24.5 85.06 22.73 84.14 21.39 83.44 19.63 82.51 20.51 84.81"/><polygon class="cls-14" points="74.88 69.22 74.94 69.1 75.64 67.76 75.71 67.64 75.13 65.24 74.2 67 73.5 68.34 72.57 70.1 74.88 69.22"/><polygon class="cls-14" points="4.92 30.45 4.85 30.57 4.15 31.91 4.09 32.03 4.67 34.43 5.59 32.67 6.3 31.33 7.22 29.57 4.92 30.45"/><polygon class="cls-14" points="79.75 46.52 79.73 46.38 79.58 44.88 79.56 44.74 77.75 43.07 77.95 45.05 78.11 46.55 78.32 48.54 79.75 46.52"/><polygon class="cls-14" points="0.04 53.15 0.06 53.29 0.22 54.79 0.23 54.93 2.05 56.6 1.84 54.62 1.68 53.12 1.47 51.14 0.04 53.15"/><polygon class="cls-14" points="43.21 89.69 43.35 89.67 44.85 89.52 44.99 89.5 46.66 87.68 44.68 87.89 43.18 88.05 41.2 88.26 43.21 89.69"/><polygon class="cls-14" points="36.58 9.98 36.44 10 34.94 10.16 34.8 10.17 33.13 11.99 35.11 11.78 36.62 11.62 38.6 11.41 36.58 9.98"/><polygon class="cls-14" points="65.73 19.31 65.63 19.23 64.45 18.27 64.34 18.19 61.88 18.29 63.42 19.54 64.6 20.49 66.15 21.75 65.73 19.31"/><polygon class="cls-14" points="14.06 80.36 14.17 80.45 15.34 81.4 15.45 81.48 17.92 81.38 16.37 80.13 15.19 79.18 13.64 77.93 14.06 80.36"/><polygon class="cls-14" points="70.42 75.67 70.51 75.56 71.46 74.39 71.55 74.28 71.44 71.81 70.19 73.36 69.24 74.54 67.99 76.09 70.42 75.67"/><polygon class="cls-14" points="9.37 24 9.29 24.11 8.34 25.28 8.25 25.39 8.35 27.86 9.6 26.31 10.55 25.13 11.81 23.58 9.37 24"/><polygon class="cls-14" points="75.45 31.52 75.38 31.4 74.66 30.07 74.59 29.95 72.28 29.1 73.23 30.85 73.95 32.18 74.9 33.93 75.45 31.52"/><polygon class="cls-14" points="4.35 68.15 4.41 68.27 5.13 69.6 5.2 69.72 7.52 70.57 6.57 68.82 5.84 67.49 4.89 65.74 4.35 68.15"/><polygon class="cls-14" points="58.21 85.39 58.33 85.32 59.66 84.6 59.78 84.53 60.63 82.21 58.88 83.17 57.55 83.89 55.8 84.84 58.21 85.39"/><polygon class="cls-14" points="21.58 14.29 21.46 14.35 20.13 15.07 20.01 15.14 19.16 17.46 20.91 16.51 22.24 15.78 23.99 14.83 21.58 14.29"/><polygon class="cls-14" points="52.09 11.75 51.95 11.71 50.5 11.28 50.37 11.24 48.13 12.28 50.04 12.85 51.49 13.27 53.4 13.84 52.09 11.75"/><polygon class="cls-14" points="27.71 87.92 27.84 87.96 29.29 88.39 29.42 88.43 31.66 87.39 29.75 86.83 28.3 86.4 26.39 85.83 27.71 87.92"/><polygon class="cls-14" points="77.98 62.02 78.02 61.89 78.45 60.44 78.49 60.31 77.45 58.07 76.89 59.98 76.46 61.43 75.89 63.34 77.98 62.02"/><polygon class="cls-14" points="1.81 37.65 1.77 37.78 1.34 39.23 1.3 39.36 2.34 41.6 2.9 39.69 3.33 38.24 3.9 36.33 1.81 37.65"/><path class="cls-15" d="M79,49.84A39.06,39.06,0,1,0,39.9,88.89,39.05,39.05,0,0,0,79,49.84Zm-71.12,0A32.07,32.07,0,1,1,39.9,81.91,32.07,32.07,0,0,1,7.83,49.84Z"/><path class="cls-12" d="M45.4,49.84a5.5,5.5,0,1,0-5.5,5.5A5.5,5.5,0,0,0,45.4,49.84Zm-.41,0a.62.62,0,1,1-.61-.62A.62.62,0,0,1,45,49.84Zm-1.49-3.6a.62.62,0,0,1,0,.86.62.62,0,0,1-.87,0,.6.6,0,0,1,0-.86A.62.62,0,0,1,43.5,46.24Zm-4.21-.88a.61.61,0,0,1,.61-.61.61.61,0,0,1,0,1.22A.61.61,0,0,1,39.29,45.36Zm-3,1.74a.61.61,0,1,1,.86,0A.6.6,0,0,1,36.3,47.1Zm-1.49,2.74a.61.61,0,1,1,.61.61A.61.61,0,0,1,34.81,49.84Zm1.75,0a3.34,3.34,0,1,1,3.34,3.33A3.33,3.33,0,0,1,36.56,49.84Zm-.26,3.6a.62.62,0,0,1,0-.87.6.6,0,0,1,.86,0,.62.62,0,0,1,0,.87A.62.62,0,0,1,36.3,53.44Zm6.33,0a.62.62,0,1,1,.87-.87.62.62,0,0,1-.87.87Zm-2.12.88a.62.62,0,0,1-.61.61.62.62,0,0,1,0-1.23A.62.62,0,0,1,40.51,54.32Z"/><path class="cls-16" d="M33,49.71H9.87V50H33s0-.08,0-.12S33,49.75,33,49.71Z"/><path class="cls-16" d="M46.84,50H69.93v-.25H46.84s0,.08,0,.13S46.84,49.92,46.84,50Z"/><rect class="cls-16" x="67.94" y="49.61" width="1.99" height="0.46"/><rect class="cls-16" x="9.87" y="49.61" width="1.99" height="0.46"/><path class="cls-16" d="M40,79.87V56.78h-.25V79.87Z"/><path class="cls-16" d="M40,42.89V19.81h-.25V42.89H40Z"/><rect class="cls-16" x="39.67" y="77.88" width="0.46" height="1.99"/><rect class="cls-16" x="39.67" y="19.81" width="0.46" height="1.99"/><path class="cls-16" d="M44.9,45,61.22,28.69,61,28.51,44.72,44.84Z"/><path class="cls-16" d="M18.75,71.16,35.07,54.84l-.17-.18L18.57,71Z"/><rect class="cls-16" x="59.43" y="29.08" width="1.99" height="0.46" transform="translate(-3.02 51.31) rotate(-45)"/><rect class="cls-16" x="18.37" y="70.14" width="1.99" height="0.46" transform="translate(-44.08 34.3) rotate(-45)"/><path class="cls-16" d="M35.07,44.84,18.75,28.51l-.18.18L34.9,45A1.37,1.37,0,0,1,35.07,44.84Z"/><path class="cls-16" d="M44.72,54.84,61,71.16l.18-.18L44.9,54.66Z"/><path class="cls-16" d="M42.24,52a1.37,1.37,0,0,1-.17.17"/><path class="cls-16" d="M44.72,54.84l.18-.18"/><rect class="cls-16" x="60.2" y="69.37" width="0.46" height="1.99" transform="translate(-32.06 63.34) rotate(-45)"/><rect class="cls-16" x="19.14" y="28.31" width="0.46" height="1.99" transform="translate(-15.05 22.28) rotate(-45)"/><path class="cls-16" d="M67.64,38.35l-.1-.23L46.26,47l.09.23Z"/><path class="cls-16" d="M12.25,61.56l21.29-8.92a2.44,2.44,0,0,1-.1-.24L12.15,61.32Z"/><rect class="cls-16" x="65.68" y="38.39" width="1.99" height="0.46" transform="translate(-9.74 28.76) rotate(-22.73)"/><rect class="cls-16" x="12.12" y="60.83" width="1.99" height="0.46" transform="translate(-22.56 9.8) rotate(-22.72)"/><path class="cls-16" d="M28.41,22.09l-.23.1L37.1,43.48l.23-.1Z"/><path class="cls-16" d="M51.38,77.58l.24-.1L42.7,56.2l-.24.09Z"/><rect class="cls-16" x="50.89" y="75.62" width="0.46" height="1.99" transform="translate(-25.63 25.7) rotate(-22.73)"/><rect class="cls-16" x="28.45" y="22.06" width="0.46" height="1.99" transform="translate(-6.68 12.87) rotate(-22.73)"/><path class="cls-16" d="M51.39,22.09,51.16,22,42.41,43.36l.24.09Z"/><path class="cls-16" d="M28.63,77.67l8.75-21.36a1.57,1.57,0,0,1-.23-.09L28.4,77.58Z"/><rect class="cls-16" x="49.9" y="22.74" width="1.99" height="0.46" transform="translate(10.36 61.37) rotate(-67.74)"/><rect class="cls-16" x="27.9" y="76.48" width="1.99" height="0.46" transform="translate(-53.04 74.39) rotate(-67.74)"/><path class="cls-16" d="M67.64,61.33l.09-.23L46.37,52.35a2.34,2.34,0,0,1-.09.24Z"/><path class="cls-16" d="M12.16,38.34l-.1.23,21.37,8.75c0-.08,0-.16.08-.24Z"/><rect class="cls-16" x="66.54" y="59.84" width="0.46" height="1.99" transform="translate(-14.83 99.59) rotate(-67.74)"/><rect class="cls-16" x="12.8" y="37.84" width="0.46" height="1.99" transform="translate(-27.85 36.18) rotate(-67.74)"/><path class="cls-17" d="M39.67,63.3a8.32,8.32,0,0,1-6.46-3.08L21.09,45.34A8.34,8.34,0,0,1,34,34.81l4.62,5.68L60.54,4a8.34,8.34,0,0,1,14.3,8.59l-28,46.62a8.37,8.37,0,0,1-6.56,4Z"/><path class="cls-18" d="M39.67,61.13a6.16,6.16,0,0,1-4.78-2.27L22.77,44a6.17,6.17,0,1,1,9.57-7.8l6.57,8.07L62.4,5.16A6.17,6.17,0,1,1,73,11.52L45,58.14a6.15,6.15,0,0,1-4.85,3A3.24,3.24,0,0,1,39.67,61.13Z"/></g></g></svg>