<svg xmlns="http://www.w3.org/2000/svg" viewBox="0 0 216.54 72.89"><defs><style>.cls-1{fill:#c31d25;}.cls-2{fill:#2c2d75;}</style></defs><title>Recurso 1</title><g id="Capa_2" data-name="Capa 2"><g id="Capa_1-2" data-name="Capa 1"><path class="cls-1" d="M.19,26.22V20.16a13.1,13.1,0,0,0,7,2.66C9,22.82,10,21.94,10,20.58,10,16.68,0,16.8,0,8.42,0,3.51,3.82.69,8.46.69a12.62,12.62,0,0,1,6,1.55V8.11a11.08,11.08,0,0,0-5.75-2C7,6.14,5.91,7,5.91,8.07c0,3.44,10,3.82,10,12.36,0,5.14-3.74,7.84-8.57,7.84A13.7,13.7,0,0,1,.19,26.22Z"/><path class="cls-1" d="M37.84,19.77H24.06c.69,2.2,2.74,3.59,6.1,3.59a14.86,14.86,0,0,0,6.49-1.58v5a16.54,16.54,0,0,1-7,1.51C22.16,28.27,18,23.83,18,18.07A10.15,10.15,0,0,1,28.34,7.65a9.46,9.46,0,0,1,9.77,9.73A11.44,11.44,0,0,1,37.84,19.77ZM24,16.07h8.3a4,4,0,0,0-4-3.56A4.53,4.53,0,0,0,24,16.07Z"/><path class="cls-1" d="M39.92,18c0-5.72,4.41-10.31,10.7-10.31a12.55,12.55,0,0,1,5,1v5.56a9.46,9.46,0,0,0-4.37-1.08c-3.36,0-5.48,2-5.48,4.83s2.12,4.83,5.48,4.83a9.46,9.46,0,0,0,4.37-1.09v5.57a12.72,12.72,0,0,1-5,1C44.33,28.27,39.92,23.83,39.92,18Z"/><path class="cls-1" d="M69.62,7.8v5.83c-3.09,0-4.71,1-4.71,4.25v9.93H59.27V8.11h5.64V10A5.86,5.86,0,0,1,69.62,7.8Z"/><path class="cls-1" d="M90.39,19.77H76.61c.69,2.2,2.74,3.59,6.1,3.59a14.83,14.83,0,0,0,6.49-1.58v5a16.54,16.54,0,0,1-7,1.51c-7.46,0-11.63-4.44-11.63-10.2A10.15,10.15,0,0,1,80.89,7.65a9.47,9.47,0,0,1,9.78,9.73A11.34,11.34,0,0,1,90.39,19.77Zm-13.82-3.7h8.3a4,4,0,0,0-4-3.56A4.53,4.53,0,0,0,76.57,16.07Z"/><path class="cls-1" d="M99.89,13.25V21a1.75,1.75,0,0,0,1.93,2,4.12,4.12,0,0,0,1.51-.31v5.25a9.22,9.22,0,0,1-2.51.35c-3.86,0-6.57-2.24-6.57-6.68V13.25H91.67V8.11h2.58V3.82h5.64V8.11h3.44v5.14Z"/><path class="cls-1" d="M121.05,14.68V27.81h-5.17v-1.2A6.46,6.46,0,0,1,105.1,21.7a6.37,6.37,0,0,1,6.45-6.48,6.49,6.49,0,0,1,3.86,1.23V15.22c0-1.66-1.35-2.78-3.39-2.78a10.35,10.35,0,0,0-5.53,1.89V9.62a11.77,11.77,0,0,1,6.68-2C117.85,7.65,121.05,10.43,121.05,14.68Zm-5.64,7a2.28,2.28,0,0,0-4.55,0,2.28,2.28,0,1,0,4.55,0Z"/><path class="cls-1" d="M135.22,7.8v5.83c-3.09,0-4.71,1-4.71,4.25v9.93h-5.64V8.11h5.64V10A5.87,5.87,0,0,1,135.22,7.8Z"/><path class="cls-1" d="M141.28.39h7.07l-5,5.71h-6Zm-3.43,7.72h5.63v19.7h-5.63Z"/><path class="cls-1" d="M162.37,14.68V27.81h-5.18v-1.2a6.45,6.45,0,0,1-10.77-4.91,6.37,6.37,0,0,1,6.45-6.48,6.51,6.51,0,0,1,3.86,1.23V15.22c0-1.66-1.35-2.78-3.4-2.78a10.34,10.34,0,0,0-5.52,1.89V9.62a11.74,11.74,0,0,1,6.68-2C159.16,7.65,162.37,10.43,162.37,14.68Zm-5.64,7a2.28,2.28,0,0,0-4.56,0,2.28,2.28,0,1,0,4.56,0Z"/><path class="cls-1" d="M193.53,0V27.81h-5.64v-2a8.14,8.14,0,0,1-5.95,2.43c-5.44,0-9.54-4.44-9.54-10.31s4.1-10.31,9.54-10.31a8.1,8.1,0,0,1,5.95,2.43V0Zm-5.64,18a4.83,4.83,0,1,0-9.66,0,4.83,4.83,0,1,0,9.66,0Z"/><path class="cls-1" d="M216.27,19.77H202.48c.7,2.2,2.75,3.59,6.11,3.59a14.82,14.82,0,0,0,6.48-1.58v5a16.51,16.51,0,0,1-7,1.51c-7.45,0-11.62-4.44-11.62-10.2A10.15,10.15,0,0,1,206.77,7.65a9.46,9.46,0,0,1,9.77,9.73A11.44,11.44,0,0,1,216.27,19.77Zm-13.82-3.7h8.3a4,4,0,0,0-4-3.56A4.51,4.51,0,0,0,202.45,16.07Z"/><path class="cls-2" d="M23,72.33l-.89-20L18.4,67H11.94L8.32,52.41,7.44,72.33H.33l2-32h9.28l3.67,17.14,3.62-17.14h9.2l1.94,32Z"/><path class="cls-2" d="M33,56.31C33,46.89,40.32,39.74,50,39.74s17,7.15,17,16.57S59.63,72.89,50,72.89,33,65.74,33,56.31Zm26.51,0A9.57,9.57,0,1,0,50,65.92,9.39,9.39,0,0,0,59.54,56.31Z"/><path class="cls-2" d="M91.53,40.29l-7.94,32H75.47l-8-32H75.1l4.5,21.18,4.51-21.18Z"/><path class="cls-2" d="M94.46,40.29h7.2v32h-7.2Z"/><path class="cls-2" d="M122.69,65.55v6.78H107.23v-32h7.2V65.55Z"/><path class="cls-2" d="M126.22,40.29h7.2v32h-7.2Z"/><path class="cls-2" d="M162.58,56.31c0,9.15-6.73,16-15.6,16h-8v-32h8C155.85,40.29,162.58,47.17,162.58,56.31Zm-7.43,0c0-5.24-3.57-9.24-8.31-9.24h-.65V65.55h.65C151.58,65.55,155.15,61.56,155.15,56.31Z"/><path class="cls-2" d="M178.83,66.9h-7l-1.07,5.43h-7.7l7.89-32h8.87l7.89,32h-7.85Zm-1.3-6.55L175.3,48.74l-2.22,11.61Z"/><path class="cls-2" d="M214.17,56.31c0,9.15-6.73,16-15.6,16h-8v-32h8C207.44,40.29,214.17,47.17,214.17,56.31Zm-7.43,0c0-5.24-3.57-9.24-8.31-9.24h-.65V65.55h.65C203.17,65.55,206.74,61.56,206.74,56.31Z"/></g></g></svg>