<svg xmlns="http://www.w3.org/2000/svg" viewBox="0 0 71.78 80.72"><defs><style>.cls-1{fill:#322717;}.cls-2{fill:#147183;}.cls-3{fill:#192e4f;}.cls-4{fill:#0c1823;}.cls-5{fill:#52b6cb;}.cls-6{fill:#ebebeb;}.cls-7{fill:#09d0d6;}</style></defs><title>SelloQR</title><g id="Capa_2" data-name="Capa 2"><g id="Capa_1-2" data-name="Capa 1"><path class="cls-1" d="M30.45,44.83a5.44,5.44,0,1,1,5.44,5.44A5.45,5.45,0,0,1,30.45,44.83Z"/><path class="cls-2" d="M63.83,44.83A27.94,27.94,0,1,0,35.89,72.77,27.94,27.94,0,0,0,63.83,44.83Zm-54.55,0A26.61,26.61,0,1,1,35.89,71.44,26.61,26.61,0,0,1,9.28,44.83Z"/><polygon class="cls-1" points="71.21 45.62 71.21 45.5 71.21 44.16 71.21 44.04 69.76 42.4 69.76 44.16 69.76 45.5 69.76 47.26 71.21 45.62"/><polygon class="cls-1" points="0.57 44.04 0.57 44.16 0.57 45.5 0.57 45.62 2.01 47.26 2.01 45.5 2.01 44.16 2.01 42.4 0.57 44.04"/><polygon class="cls-1" points="35.1 80.15 35.22 80.15 36.56 80.15 36.68 80.15 38.32 78.71 36.56 78.71 35.22 78.71 33.46 78.71 35.1 80.15"/><polygon class="cls-1" points="36.68 9.51 36.56 9.51 35.22 9.51 35.1 9.51 33.46 10.95 35.22 10.95 36.56 10.95 38.32 10.95 36.68 9.51"/><polygon class="cls-1" points="61.42 20.42 61.33 20.33 60.39 19.39 60.3 19.3 58.13 19.16 59.37 20.4 60.31 21.35 61.56 22.59 61.42 20.42"/><polygon class="cls-1" points="10.36 69.25 10.44 69.33 11.39 70.28 11.47 70.36 13.65 70.5 12.41 69.26 11.46 68.31 10.22 67.07 10.36 69.25"/><polygon class="cls-1" points="60.3 70.36 60.39 70.28 61.33 69.33 61.42 69.24 61.56 67.07 60.31 68.31 59.37 69.26 58.13 70.5 60.3 70.36"/><polygon class="cls-1" points="11.47 19.3 11.39 19.39 10.44 20.33 10.36 20.42 10.22 22.59 11.46 21.35 12.41 20.4 13.65 19.16 11.47 19.3"/><polygon class="cls-1" points="68.82 32.04 68.77 31.93 68.26 30.7 68.22 30.59 66.26 29.62 66.93 31.25 67.44 32.48 68.11 34.11 68.82 32.04"/><polygon class="cls-1" points="2.96 57.62 3 57.73 3.52 58.96 3.56 59.08 5.52 60.04 4.85 58.41 4.34 57.18 3.66 55.55 2.96 57.62"/><polygon class="cls-1" points="48.67 77.76 48.79 77.71 50.02 77.2 50.13 77.16 51.09 75.2 49.47 75.87 48.24 76.38 46.61 77.06 48.67 77.76"/><polygon class="cls-1" points="23.1 11.9 22.99 11.95 21.76 12.46 21.64 12.5 20.68 14.46 22.31 13.79 23.54 13.28 25.17 12.6 23.1 11.9"/><polygon class="cls-1" points="50.13 12.5 50.02 12.46 48.79 11.95 48.67 11.9 46.61 12.6 48.24 13.28 49.47 13.79 51.09 14.46 50.13 12.5"/><polygon class="cls-1" points="21.64 77.16 21.76 77.2 22.99 77.71 23.1 77.76 25.17 77.06 23.54 76.38 22.31 75.87 20.68 75.2 21.64 77.16"/><polygon class="cls-1" points="68.22 59.08 68.26 58.96 68.77 57.73 68.82 57.62 68.11 55.55 67.44 57.18 66.93 58.41 66.26 60.04 68.22 59.08"/><polygon class="cls-1" points="3.56 30.59 3.52 30.7 3 31.93 2.96 32.04 3.66 34.11 4.34 32.48 4.85 31.25 5.52 29.62 3.56 30.59"/><polygon class="cls-1" points="70.68 38.71 70.66 38.59 70.4 37.28 70.37 37.17 68.64 35.84 68.98 37.57 69.24 38.88 69.59 40.6 70.68 38.71"/><polygon class="cls-1" points="1.1 50.95 1.12 51.06 1.38 52.37 1.41 52.49 3.14 53.82 2.79 52.09 2.53 50.78 2.19 49.06 1.1 50.95"/><polygon class="cls-1" points="42 79.62 42.12 79.6 43.43 79.34 43.55 79.31 44.88 77.58 43.15 77.92 41.84 78.19 40.12 78.53 42 79.62"/><polygon class="cls-1" points="29.77 10.04 29.65 10.06 28.34 10.32 28.22 10.35 26.9 12.08 28.63 11.73 29.93 11.47 31.66 11.13 29.77 10.04"/><polygon class="cls-1" points="56.17 15.9 56.06 15.84 54.95 15.09 54.85 15.03 52.69 15.31 54.15 16.29 55.26 17.03 56.73 18.01 56.17 15.9"/><polygon class="cls-1" points="15.61 73.76 15.71 73.82 16.82 74.57 16.92 74.63 19.09 74.34 17.62 73.37 16.51 72.63 15.05 71.65 15.61 73.76"/><polygon class="cls-1" points="64.81 65.11 64.88 65.01 65.62 63.9 65.69 63.79 65.4 61.63 64.43 63.09 63.69 64.2 62.71 65.67 64.81 65.11"/><polygon class="cls-1" points="6.96 24.55 6.89 24.65 6.15 25.76 6.08 25.86 6.37 28.03 7.35 26.57 8.09 25.45 9.07 23.99 6.96 24.55"/><polygon class="cls-1" points="65.69 25.86 65.62 25.76 64.88 24.65 64.81 24.55 62.71 23.99 63.69 25.45 64.43 26.57 65.4 28.03 65.69 25.86"/><polygon class="cls-1" points="6.08 63.8 6.15 63.9 6.89 65.01 6.96 65.11 9.07 65.67 8.09 64.2 7.35 63.09 6.37 61.63 6.08 63.8"/><polygon class="cls-1" points="54.85 74.63 54.95 74.57 56.06 73.82 56.17 73.76 56.73 71.65 55.26 72.63 54.15 73.37 52.69 74.34 54.85 74.63"/><polygon class="cls-1" points="16.92 15.03 16.82 15.09 15.71 15.84 15.61 15.9 15.05 18.01 16.51 17.03 17.62 16.29 19.09 15.31 16.92 15.03"/><polygon class="cls-1" points="43.55 10.35 43.43 10.32 42.12 10.06 42 10.04 40.12 11.13 41.84 11.47 43.15 11.73 44.88 12.08 43.55 10.35"/><polygon class="cls-1" points="28.23 79.31 28.34 79.34 29.65 79.6 29.77 79.62 31.66 78.53 29.93 78.19 28.63 77.92 26.9 77.58 28.23 79.31"/><polygon class="cls-1" points="70.37 52.49 70.4 52.37 70.66 51.06 70.68 50.95 69.59 49.06 69.24 50.78 68.98 52.09 68.64 53.82 70.37 52.49"/><polygon class="cls-1" points="1.41 37.17 1.38 37.28 1.12 38.59 1.1 38.71 2.19 40.6 2.53 38.88 2.79 37.57 3.14 35.84 1.41 37.17"/><polygon class="cls-3" points="71.63 48.9 71.64 48.77 71.77 47.42 71.78 47.3 70.47 45.5 70.31 47.29 70.18 48.64 70.02 50.43 71.63 48.9"/><polygon class="cls-3" points="0.15 40.76 0.14 40.88 0.01 42.24 0 42.36 1.31 44.16 1.47 42.37 1.6 41.02 1.76 39.23 0.15 40.76"/><polygon class="cls-3" points="31.82 80.57 31.94 80.58 33.3 80.71 33.42 80.72 35.22 79.41 33.43 79.25 32.08 79.12 30.29 78.96 31.82 80.57"/><polygon class="cls-3" points="39.96 9.09 39.83 9.08 38.48 8.95 38.36 8.94 36.56 10.25 38.35 10.41 39.7 10.54 41.48 10.7 39.96 9.09"/><polygon class="cls-3" points="64.04 22.43 63.96 22.34 63.09 21.29 63.01 21.2 60.82 20.86 61.96 22.23 62.83 23.28 63.98 24.65 64.04 22.43"/><polygon class="cls-3" points="7.74 67.23 7.82 67.32 8.69 68.37 8.77 68.46 10.96 68.81 9.81 67.43 8.95 66.38 7.8 65.01 7.74 67.23"/><polygon class="cls-3" points="58.29 72.98 58.38 72.9 59.43 72.03 59.52 71.95 59.86 69.76 58.49 70.9 57.44 71.77 56.06 72.92 58.29 72.98"/><polygon class="cls-3" points="13.49 16.68 13.4 16.76 12.35 17.63 12.26 17.71 11.91 19.9 13.29 18.76 14.34 17.89 15.71 16.74 13.49 16.68"/><polygon class="cls-3" points="70.47 34.91 70.43 34.79 70.03 33.49 69.99 33.38 68.09 32.22 68.63 33.93 69.03 35.23 69.56 36.94 70.47 34.91"/><polygon class="cls-3" points="1.31 54.75 1.35 54.87 1.75 56.16 1.79 56.28 3.68 57.44 3.15 55.73 2.75 54.43 2.21 52.72 1.31 54.75"/><polygon class="cls-3" points="45.81 79.41 45.93 79.37 47.23 78.97 47.34 78.93 48.5 77.03 46.79 77.57 45.49 77.97 43.78 78.5 45.81 79.41"/><polygon class="cls-3" points="25.97 10.25 25.85 10.29 24.55 10.69 24.43 10.73 23.28 12.63 24.99 12.09 26.29 11.69 28 11.16 25.97 10.25"/><polygon class="cls-3" points="53.33 13.37 53.22 13.31 52.01 12.68 51.9 12.62 49.74 13.14 51.33 13.97 52.53 14.61 54.12 15.44 53.33 13.37"/><polygon class="cls-3" points="18.45 76.3 18.56 76.35 19.77 76.98 19.88 77.04 22.03 76.52 20.45 75.69 19.24 75.05 17.66 74.22 18.45 76.3"/><polygon class="cls-3" points="67.35 62.27 67.41 62.16 68.04 60.95 68.1 60.84 67.58 58.69 66.74 60.27 66.11 61.48 65.28 63.06 67.35 62.27"/><polygon class="cls-3" points="4.42 27.39 4.37 27.5 3.73 28.71 3.68 28.82 4.2 30.98 5.03 29.39 5.67 28.18 6.5 26.6 4.42 27.39"/><polygon class="cls-3" points="71.74 41.85 71.72 41.72 71.58 40.37 71.57 40.25 69.94 38.74 70.12 40.53 70.27 41.88 70.45 43.66 71.74 41.85"/><polygon class="cls-3" points="0.04 47.81 0.05 47.94 0.2 49.29 0.21 49.41 1.84 50.91 1.65 49.13 1.51 47.78 1.32 46 0.04 47.81"/><polygon class="cls-3" points="38.87 80.68 38.99 80.67 40.35 80.52 40.47 80.51 41.97 78.88 40.19 79.06 38.84 79.21 37.06 79.4 38.87 80.68"/><polygon class="cls-3" points="32.91 8.98 32.78 8.99 31.43 9.14 31.31 9.15 29.8 10.78 31.59 10.6 32.94 10.45 34.72 10.26 32.91 8.98"/><polygon class="cls-3" points="59.13 17.37 59.03 17.29 57.98 16.44 57.88 16.36 55.66 16.45 57.05 17.58 58.11 18.43 59.5 19.56 59.13 17.37"/><polygon class="cls-3" points="12.65 72.29 12.74 72.37 13.8 73.22 13.9 73.3 16.12 73.21 14.72 72.08 13.67 71.22 12.27 70.1 12.65 72.29"/><polygon class="cls-3" points="63.35 68.07 63.42 67.97 64.28 66.92 64.36 66.82 64.27 64.6 63.14 66 62.28 67.05 61.16 68.44 63.35 68.07"/><polygon class="cls-3" points="8.43 21.59 8.35 21.69 7.5 22.74 7.42 22.84 7.51 25.06 8.64 23.66 9.49 22.61 10.62 21.21 8.43 21.59"/><polygon class="cls-3" points="67.87 28.36 67.81 28.25 67.16 27.05 67.1 26.94 65.01 26.18 65.87 27.75 66.52 28.95 67.38 30.52 67.87 28.36"/><polygon class="cls-3" points="3.91 61.3 3.97 61.41 4.62 62.61 4.68 62.72 6.76 63.48 5.91 61.91 5.26 60.71 4.4 59.14 3.91 61.3"/><polygon class="cls-3" points="52.36 76.81 52.47 76.75 53.67 76.1 53.78 76.04 54.54 73.95 52.97 74.81 51.77 75.46 50.2 76.32 52.36 76.81"/><polygon class="cls-3" points="19.41 12.85 19.3 12.91 18.11 13.56 18 13.62 17.24 15.7 18.81 14.85 20.01 14.2 21.58 13.34 19.41 12.85"/><polygon class="cls-3" points="46.85 10.57 46.73 10.53 45.43 10.15 45.31 10.11 43.3 11.05 45.01 11.55 46.32 11.94 48.04 12.45 46.85 10.57"/><polygon class="cls-3" points="24.93 79.09 25.04 79.13 26.35 79.51 26.47 79.55 28.48 78.61 26.76 78.11 25.46 77.72 23.74 77.21 24.93 79.09"/><polygon class="cls-3" points="70.15 55.79 70.19 55.67 70.57 54.37 70.61 54.25 69.67 52.24 69.16 53.95 68.78 55.26 68.27 56.98 70.15 55.79"/><polygon class="cls-3" points="1.63 33.87 1.59 33.98 1.21 35.29 1.17 35.41 2.11 37.42 2.61 35.7 3 34.4 3.51 32.68 1.63 33.87"/><path class="cls-4" d="M71,44.83A35.13,35.13,0,1,0,35.89,80,35.13,35.13,0,0,0,71,44.83Zm-64,0A28.85,28.85,0,1,1,35.89,73.68,28.85,28.85,0,0,1,7,44.83Z"/><path class="cls-1" d="M40.84,44.83a5,5,0,1,0-5,5A5,5,0,0,0,40.84,44.83Zm-.37,0a.55.55,0,0,1-.55.55.55.55,0,0,1,0-1.1A.55.55,0,0,1,40.47,44.83Zm-1.34-3.24a.56.56,0,0,1,0,.78.55.55,0,1,1-.78-.78A.56.56,0,0,1,39.13,41.59Zm-3.79-.79a.55.55,0,0,1,.55-.55.55.55,0,0,1,.55.55.55.55,0,0,1-.55.55A.54.54,0,0,1,35.34,40.8Zm-2.69,1.57a.55.55,0,1,1,.78,0A.54.54,0,0,1,32.65,42.37Zm-1.34,2.46a.55.55,0,1,1,.55.55A.55.55,0,0,1,31.31,44.83Zm1.58,0a3,3,0,1,1,3,3A3,3,0,0,1,32.89,44.83Zm-.24,3.24a.56.56,0,0,1,0-.78.54.54,0,0,1,.78,0,.55.55,0,0,1-.78.78Zm5.7,0a.55.55,0,0,1,.78-.78.55.55,0,0,1-.78.78Zm-1.91.79a.55.55,0,0,1-.55.55.55.55,0,0,1-.55-.55.54.54,0,0,1,.55-.55A.55.55,0,0,1,36.44,48.86Z"/><path class="cls-5" d="M29.64,44.72H8.88v.22H29.64s0-.07,0-.11S29.64,44.76,29.64,44.72Z"/><path class="cls-5" d="M42.14,44.94H62.9v-.22H42.14s0,.07,0,.11S42.14,44.9,42.14,44.94Z"/><rect class="cls-5" x="61.11" y="44.62" width="1.79" height="0.41"/><rect class="cls-5" x="8.88" y="44.62" width="1.79" height="0.41"/><path class="cls-5" d="M36,71.84V51.08h-.22V71.84Z"/><path class="cls-5" d="M36,38.58V17.82h-.22V38.58H36Z"/><rect class="cls-5" x="35.68" y="70.05" width="0.41" height="1.79"/><rect class="cls-5" x="35.68" y="17.82" width="0.41" height="1.79"/><path class="cls-5" d="M40.39,40.49,55.07,25.81l-.16-.16L40.23,40.33Z"/><path class="cls-5" d="M16.87,64,31.55,49.33l-.16-.16L16.71,63.85Z"/><rect class="cls-5" x="53.46" y="26.16" width="1.79" height="0.41" transform="translate(-2.72 46.16) rotate(-45)"/><rect class="cls-5" x="16.53" y="63.09" width="1.79" height="0.41" transform="translate(-39.66 30.87) rotate(-45.01)"/><path class="cls-5" d="M31.55,40.33,16.87,25.65l-.16.16L31.39,40.49Z"/><path class="cls-5" d="M40.23,49.33,54.91,64l.16-.16L40.39,49.17C40.33,49.22,40.28,49.28,40.23,49.33Z"/><path class="cls-5" d="M38,46.78a1.21,1.21,0,0,1-.16.16"/><path class="cls-5" d="M40.23,49.33c.05,0,.1-.11.16-.16"/><rect class="cls-5" x="54.15" y="62.4" width="0.41" height="1.79" transform="translate(-28.84 56.96) rotate(-44.99)"/><rect class="cls-5" x="17.21" y="25.47" width="0.41" height="1.79" transform="translate(-13.54 20.04) rotate(-45)"/><path class="cls-5" d="M60.85,34.5l-.09-.21-19.15,8a1.8,1.8,0,0,1,.08.21Z"/><path class="cls-5" d="M11,55.37l19.15-8-.09-.21-19.15,8Z"/><rect class="cls-5" x="59.08" y="34.53" width="1.79" height="0.41" transform="translate(-8.77 25.88) rotate(-22.74)"/><rect class="cls-5" x="10.91" y="54.72" width="1.79" height="0.41" transform="translate(-20.3 8.82) rotate(-22.73)"/><path class="cls-5" d="M25.55,19.87l-.2.09,8,19.15.21-.09Z"/><path class="cls-5" d="M46.22,69.79l.21-.09-8-19.15-.21.09Z"/><rect class="cls-5" x="45.77" y="68.02" width="0.41" height="1.79" transform="translate(-23.06 23.13) rotate(-22.74)"/><rect class="cls-5" x="25.59" y="19.85" width="0.41" height="1.79" transform="translate(-6.01 11.58) rotate(-22.73)"/><path class="cls-5" d="M46.23,19.88,46,19.79,38.15,39l.21.07Z"/><path class="cls-5" d="M25.76,69.87l7.87-19.22-.22-.07L25.55,69.79Z"/><rect class="cls-5" x="44.89" y="20.45" width="1.79" height="0.41" transform="translate(9.32 55.21) rotate(-67.74)"/><rect class="cls-5" x="25.1" y="68.79" width="1.79" height="0.41" transform="translate(-47.71 66.92) rotate(-67.75)"/><path class="cls-5" d="M60.84,55.17l.09-.21L41.71,47.09c0,.07-.05.15-.08.21Z"/><path class="cls-5" d="M10.93,34.49l-.08.21,19.22,7.87a1.87,1.87,0,0,1,.07-.22Z"/><rect class="cls-5" x="59.85" y="53.83" width="0.41" height="1.79" transform="translate(-13.34 89.58) rotate(-67.74)"/><rect class="cls-5" x="11.51" y="34.04" width="0.41" height="1.79" transform="matrix(0.38, -0.93, 0.93, 0.38, -25.05, 32.54)"/><path class="cls-6" d="M35.69,56.94a7.5,7.5,0,0,1-5.82-2.77L19,40.79A7.5,7.5,0,0,1,30.6,31.32l4.16,5.1L54.46,3.64a7.5,7.5,0,0,1,12.86,7.72L42.12,53.3a7.48,7.48,0,0,1-5.9,3.62Z"/><path class="cls-7" d="M35.69,55a5.56,5.56,0,0,1-4.31-2.05L20.48,39.56a5.55,5.55,0,1,1,8.61-7L35,39.81,56.13,4.64a5.55,5.55,0,1,1,9.52,5.72L40.44,52.3A5.54,5.54,0,0,1,36.08,55Z"/><path class="cls-7" d="M35.69,55a5.56,5.56,0,0,1-4.31-2.05L20.48,39.56a5.55,5.55,0,1,1,8.61-7L35,39.81,56.13,4.64a5.55,5.55,0,1,1,9.52,5.72L40.44,52.3A5.54,5.54,0,0,1,36.08,55Z"/></g></g></svg>